<?xml version="1.0" encoding="utf-8"?>
<!-- Generator: Adobe Illustrator 28.0.0, SVG Export Plug-In . SVG Version: 6.00 Build 0)  -->
<svg version="1.1" id="Layer_1" xmlns="http://www.w3.org/2000/svg" xmlns:xlink="http://www.w3.org/1999/xlink" x="0px" y="0px"
	 viewBox="0 0 128 128" style="enable-background:new 0 0 128 128;" xml:space="preserve">
<style type="text/css">
	.st0{fill:#061A33;}
	.st1{fill:#47A2DA;}
</style>
<rect class="st0" width="128" height="128"/>
<g>
	<g>
		<path class="st1" d="M23.9,113.8v-9.4c2.2-0.1,4-0.4,5.5-0.8c1.5-0.5,2.6-1.6,3.4-3.3c0.8-1.7,1.2-4.4,1.2-8.2V37.8
			c0-2.6,0.1-5,0.2-7.4c0.1-2.4,0.3-4.2,0.4-5.4c-1.5,0.1-3.4,0.2-5.7,0.2c-2.3,0-3.9,0.1-5,0.2V14.5c6.5-0.1,13.1-0.1,19.6-0.1
			c6.6,0,13.1,0,19.6-0.1c11.3-0.1,20.3,2,27,6.3c6.7,4.3,9.8,10.8,9.3,19.5c-0.2,2.7-1,5.4-2.6,8c-1.5,2.6-3.8,4.9-6.7,7
			c-3,2.1-6.7,3.7-11.1,5v0.1c9.4,1.5,16.4,4.7,20.8,9.4c4.4,4.8,6.7,10.1,6.7,15.9c0,6.1-1.5,11.3-4.5,15.5
			c-3,4.2-7.1,7.4-12.3,9.5c-5.2,2.1-11.1,3.2-17.7,3.2H23.9z M53.9,103.7c1.7,0,3.3,0,4.8,0c1.5,0,3,0,4.5-0.1c1.5,0,3-0.1,4.4-0.1
			c5.8-0.3,10-2.1,12.6-5.5c2.6-3.4,4-7.7,4-12.9c0-4.3-0.9-7.8-2.7-10.3c-1.8-2.5-4.1-4.3-6.9-5.3C71.9,68.5,69,68,66,68
			c-2.4,0-4.4,0-6.1,0c-1.7,0-3.5,0-5.4,0.1v23.1c0,2.6,0,5-0.1,7.2C54.3,100.7,54.1,102.5,53.9,103.7z M54.5,58l7.4-0.1
			c4-0.1,7.1-1,9.4-2.7c2.3-1.7,4-4,5-6.9c1-2.9,1.5-6,1.5-9.4c0-3.8-0.8-6.7-2.3-8.9c-1.5-2.1-3.4-3.7-5.7-4.6
			c-2.3-0.9-4.6-1.4-7.1-1.3c-1.5,0-2.9,0.2-4.1,0.7c-1.2,0.5-2.2,1.5-3,3.2c-0.8,1.7-1.1,4.3-1.1,8V58z"/>
	</g>
</g>
</svg>
